Coordinates
version=1
nRows=14
nColumns=40
inDegrees=yes

Units are S.I. units (second, meters, Newtons, ...)
If the header above contains a line with 'inDegrees', this indicates whether rotational values are in degrees (yes) or radians (no).

endheader
time	pelvis_tilt	pelvis_list	pelvis_rotation	pelvis_tx	pelvis_ty	pelvis_tz	hip_flexion_r	hip_adduction_r	hip_rotation_r	knee_angle_r	knee_angle_r_beta	ankle_angle_r	subtalar_angle_r	mtp_angle_r	hip_flexion_l	hip_adduction_l	hip_rotation_l	knee_angle_l	knee_angle_l_beta	ankle_angle_l	subtalar_angle_l	mtp_angle_l	lumbar_extension	lumbar_bending	lumbar_rotation	arm_flex_r	arm_add_r	arm_rot_r	elbow_flex_r	pro_sup_r	wrist_flex_r	wrist_dev_r	arm_flex_l	arm_add_l	arm_rot_l	elbow_flex_l	pro_sup_l	wrist_flex_l	wrist_dev_l
      1.50000000	     14.93335634	     -7.28047918	     -1.74667863	     -0.26755358	      1.06283750	     -1.05102361	     19.09368722	     -0.25913137	     -7.03769593	      5.54634996	      0.09680207	     -2.76793104	      0.00000000	      0.00000000	     -7.72513364	     -3.22785818	    -12.72074645	     19.79354122	      0.34546246	     -0.20875779	      0.00000000	      0.00000000	    -13.47710570	      4.63508597	      7.89794899	     82.17181020	    -21.46059665	     51.09873251	     30.72011798	     85.59998997	      0.00000000	      0.00000000	     84.87025489	    -21.26798734	     64.36778526	     43.72880797	     86.58838578	      0.00000000	      0.00000000
      1.50500000	     14.91326087	     -7.25708814	     -1.73525510	     -0.26765812	      1.06278243	     -1.05113366	     19.13738392	     -0.28486889	     -6.99262336	      5.55231440	      0.09690617	     -2.81344821	      0.00000000	      0.00000000	     -7.69822785	     -3.20017473	    -12.68580356	     19.78353063	      0.34528775	     -0.20923517	      0.00000000	      0.00000000	    -13.45707268	      4.59882863	      7.91009010	     82.17239008	    -21.53837597	     51.14824546	     30.72339769	     85.64572291	      0.00000000	      0.00000000	     84.89590138	    -21.19679774	     64.37049224	     43.68301157	     86.59029949	      0.00000000	      0.00000000
      1.51000000	     14.92284829	     -7.25179074	     -1.75324164	     -0.26773705	      1.06276127	     -1.05118755	     19.16359823	     -0.27891004	     -6.93514618	      5.59126338	      0.09758596	     -2.77976555	      0.00000000	      0.00000000	     -7.70465038	     -3.19519510	    -12.78591848	     19.78088195	      0.34524152	     -0.24263376	      0.00000000	      0.00000000	    -13.46948345	      4.57145855	      7.95306465	     82.12781011	    -21.62456044	     51.02478194	     30.85139620	     85.53294525	      0.00000000	      0.00000000	     84.94344223	    -21.11221258	     64.41179044	     43.61446076	     86.63331284	      0.00000000	      0.00000000
      1.51500000	     14.98599835	     -7.19712031	     -1.76963031	     -0.26774810	      1.06279200	     -1.05125052	     19.13632641	     -0.32811756	     -6.89336139	      5.65502966	      0.09869889	     -2.68395184	      0.00000000	      0.00000000	     -7.80935037	     -3.11465413	    -12.74344101	     19.69578084	      0.34375622	     -0.25417704	      0.00000000	      0.00000000	    -13.53271940	      4.51521084	      7.92318437	     82.21841992	    -21.64039543	     51.46353616	     30.85908937	     85.23707066	      0.00000000	      0.00000000	     85.01589578	    -21.18973876	     64.55764051	     43.67329436	     86.66961842	      0.00000000	      0.00000000
      1.52000000	     15.03495136	     -7.18099573	     -1.79732408	     -0.26782062	      1.06285177	     -1.05132892	     19.09189659	     -0.33670299	     -6.85694109	      5.62161224	      0.09811564	     -2.81202512	      0.00000000	      0.00000000	     -7.87088961	     -3.10614072	    -12.91035143	     19.72828063	      0.34432345	     -0.23581676	      0.00000000	      0.00000000	    -13.58844946	      4.48014237	      7.98307694	     82.13303320	    -21.67727499	     51.05995162	     30.92632444	     85.37183483	      0.00000000	      0.00000000	     85.00293335	    -21.06085466	     64.35405183	     43.57608226	     86.68381342	      0.00000000	      0.00000000
      1.52500000	     14.96274576	     -7.22553183	     -1.70982336	     -0.26790502	      1.06266135	     -1.05145432	     19.19121640	     -0.30942592	     -6.79992754	      5.65693681	      0.09873217	     -2.77011904	      0.00000000	      0.00000000	     -7.75432406	     -3.17645888	    -12.78057115	     19.77816341	      0.34519407	     -0.19100993	      0.00000000	      0.00000000	    -13.50174368	      4.55039106	      7.87443820	     82.13869272	    -21.63137923	     51.06767621	     30.87307037	     85.44625386	      0.00000000	      0.00000000	     85.01567109	    -21.07635756	     64.35545701	     43.56558133	     86.61692106	      0.00000000	      0.00000000
      1.53000000	     14.94576248	     -7.19937900	     -1.70538370	     -0.26797371	      1.06258695	     -1.05155493	     19.20254193	     -0.33038482	     -6.87615304	      5.57938597	      0.09737866	     -2.75514725	      0.00000000	      0.00000000	     -7.72015910	     -3.14337886	    -12.74116345	     19.78496881	      0.34531285	     -0.18744775	      0.00000000	      0.00000000	    -13.47657561	      4.53249158	      7.82085370	     82.13638088	    -21.58394912	     50.98314898	     30.82350031	     85.72405210	      0.00000000	      0.00000000	     85.00992286	    -21.11082877	     64.34287221	     43.57284867	     86.53570155	      0.00000000	      0.00000000
      1.53500000	     14.96639274	     -7.20071993	     -1.67883073	     -0.26808458	      1.06256691	     -1.05163522	     19.21661953	     -0.33430093	     -6.89583713	      5.62236539	      0.09812879	     -2.73753919	      0.00000000	      0.00000000	     -7.72090247	     -3.15333279	    -12.79065853	     19.82264456	      0.34597041	     -0.15888660	      0.00000000	      0.00000000	    -13.50338191	      4.51916935	      7.81525071	     82.09063557	    -21.66393252	     50.85551691	     30.96175098	     85.68405598	      0.00000000	      0.00000000	     85.08961885	    -21.04919496	     64.43959641	     43.50575307	     86.58304215	      0.00000000	      0.00000000
      1.54000000	     14.96914086	     -7.20896057	     -1.65735772	     -0.26815692	      1.06253719	     -1.05177837	     19.23003851	     -0.34002144	     -6.91359324	      5.62154921	      0.09811454	     -2.74754206	      0.00000000	      0.00000000	     -7.72499724	     -3.16288130	    -12.73200957	     19.80548448	      0.34567091	     -0.16437889	      0.00000000	      0.00000000	    -13.50865990	      4.54846830	      7.75906179	     82.13244664	    -21.63037096	     50.99130796	     30.93241840	     85.58214837	      0.00000000	      0.00000000	     85.07990980	    -21.09396837	     64.34863710	     43.56373070	     86.61779219	      0.00000000	      0.00000000
      1.54500000	     14.97213467	     -7.19263439	     -1.65557146	     -0.26824419	      1.06250043	     -1.05188557	     19.27074963	     -0.36355503	     -6.91835749	      5.68906832	      0.09929297	     -2.67774205	      0.00000000	      0.00000000	     -7.72121273	     -3.14335020	    -12.71148232	     19.80665601	      0.34569136	     -0.14191362	      0.00000000	      0.00000000	    -13.50897545	      4.52456753	      7.75854694	     82.10143726	    -21.67717491	     50.93784421	     31.01088048	     85.43129436	      0.00000000	      0.00000000	     85.12924167	    -21.03021013	     64.42862777	     43.45468738	     86.65803548	      0.00000000	      0.00000000
      1.55000000	     15.00015174	     -7.22044879	     -1.64128067	     -0.26830446	      1.06252281	     -1.05193726	     19.23952396	     -0.33750834	     -6.90000431	      5.65817269	      0.09875374	     -2.70219462	      0.00000000	      0.00000000	     -7.73317624	     -3.19114690	    -12.77927643	     19.85095341	      0.34646450	     -0.10597594	      0.00000000	      0.00000000	    -13.54515717	      4.56333094	      7.72130802	     82.08439160	    -21.63335503	     50.78936360	     31.02039588	     85.59436077	      0.00000000	      0.00000000	     85.13141815	    -21.08657826	     64.38359946	     43.54461902	     86.63511414	      0.00000000	      0.00000000
      1.55500000	     15.05388692	     -7.17260351	     -1.67374140	     -0.26831738	      1.06261001	     -1.05197641	     19.20906989	     -0.37944573	     -6.89004179	      5.68196155	      0.09916894	     -2.63951701	      0.00000000	      0.00000000	     -7.81453724	     -3.13413320	    -12.84798575	     19.80802321	      0.34571522	     -0.18122765	      0.00000000	      0.00000000	    -13.59287056	      4.49332324	      7.73775070	     82.03994288	    -21.65192338	     50.66429036	     31.07416437	     85.66757101	      0.00000000	      0.00000000	     85.18745389	    -21.07076635	     64.53701170	     43.52354488	     86.58182199	      0.00000000	      0.00000000
      1.56000000	     15.00540241	     -7.20803465	     -1.65983945	     -0.26850290	      1.06244459	     -1.05207192	     19.29207729	     -0.35012108	     -6.89075726	      5.70976810	      0.09965425	     -2.63977312	      0.00000000	      0.00000000	     -7.71581766	     -3.19224434	    -12.87042013	     19.88662881	      0.34708715	     -0.11183387	      0.00000000	      0.00000000	    -13.55114276	      4.53681635	      7.72576649	     82.06438921	    -21.66692830	     50.75549009	     31.02075308	     85.60809847	      0.00000000	      0.00000000	     85.20040712	    -21.03361862	     64.48593697	     43.50410590	     86.60326696	      0.00000000	      0.00000000
      1.56500000	     15.00901569	     -7.23118487	     -1.62520721	     -0.26862855	      1.06239363	     -1.05213022	     19.29734583	     -0.33437121	     -6.92640208	      5.69051469	      0.09931822	     -2.67159844	      0.00000000	      0.00000000	     -7.65939187	     -3.24729253	    -12.89652047	     19.99975045	      0.34906149	     -0.08490452	      0.00000000	      0.00000000	    -13.56380851	      4.59353393	      7.61294090	     82.17070631	    -21.53588646	     51.02374955	     30.86982565	     85.64707753	      0.00000000	      0.00000000	     85.17085393	    -21.16244729	     64.37321147	     43.57572457	     86.55710556	      0.00000000	      0.00000000
